PathFileType	4	(X/Y/Z)	Patient4_TMGait_0pt3_02_left_15.trc.trc
DataRate	CameraRate	NumFrames	NumMarkers	Units	OrigDataRate	OrigDataStartFrame	OrigNumFrames
52.631578947368	52.631578947368	7	33	mm	52.631578947368	106	       141
Frame#	Time	Sacral			L.Shoulder			Chest			R.Shoulder			Neck			R.ASIS			L.ASIS			R.Thigh.Superior			R.Thigh.Lateral			R.Thigh.Inferior			R.Patella			L.Thigh.Superior			L.Thigh.Lateral			L.Thigh.Inferior			L.Patella			L.Shank.Superior			L.Shank.Lateral			L.Shank.Inferior			R.Shank.Superior			R.Shank.Lateral			R.Shank.Inferior			R.Heel			R.Midfoot.Superior			R.Midfoot.Lateral			R.Toe			L.Heel			L.Midfoot.Lateral			L.Midfoot.Superior			L.Toe			L.Elbow			L.Wrist			R.Elbow			R.Wrist			
		X1	Y1	Z1	X2	Y2	Z2	X3	Y3	Z3	X4	Y4	Z4	X5	Y5	Z5	X6	Y6	Z6	X7	Y7	Z7	X8	Y8	Z8	X9	Y9	Z9	X10	Y10	Z10	X11	Y11	Z11	X12	Y12	Z12	X13	Y13	Z13	X14	Y14	Z14	X15	Y15	Z15	X16	Y16	Z16	X17	Y17	Z17	X18	Y18	Z18	X19	Y19	Z19	X20	Y20	Z20	X21	Y21	Z21	X22	Y22	Z22	X23	Y23	Z23	X24	Y24	Z24	X25	Y25	Z25	X26	Y26	Z26	X27	Y27	Z27	X28	Y28	Z28	X29	Y29	Z29	X30	Y30	Z30	X31	Y31	Z31	X32	Y32	Z32	X33	Y33	Z33	

106	31.005000000000	708.861055838529	997.019569799397	542.440178368219	906.822652743475	1420.865118410097	361.319369297400	999.810803529573	1351.642172358671	528.342351556282	911.056924124927	1427.380726356945	697.845604298220	885.253485457435	1485.823908832125	518.678449761542	941.391298948295	932.609301465089	658.356086278636	923.462700265793	954.707330979276	385.871726168946	994.297361800722	734.136308662953	614.638944545874	919.049729980322	616.890807085193	663.657900825164	997.808076396966	573.878643802831	578.570056215524	1002.177948445632	480.232043765984	578.633027685418	1007.389225932181	768.226910945427	422.661483608251	967.245515908979	641.442282774345	344.982630230531	1063.241882152702	578.902108184593	417.564257645761	1075.000189995475	489.656974596948	409.047851133767	1009.320544623899	424.662046310515	392.508047015444	870.134705937478	380.918084549803	338.323500556406	861.977352820748	247.692571806258	383.109836214616	960.690751634328	392.468624382604	582.422149307857	878.887395323007	294.479430969806	640.721685458538	907.106352323365	199.039233174786	572.896710775604	755.811921365498	43.375472625559	537.591796073334	926.956450755273	96.214738382286	578.530572529361	837.006356508274	37.427479607545	615.023274752857	1045.480594613394	42.641078265595	611.803665030147	674.647908711818	177.651575807388	415.303566746355	731.830117849921	139.093644202215	331.638814300298	836.487901374643	145.546647737781	353.631237351061	913.920858751893	37.074965855849	315.504745100818	936.422574462489	1064.147071476643	250.463626346197	1120.335510453863	884.226345698821	253.987913673679	890.419612441872	1077.863022086559	822.125918746313	1044.572872171674	869.028217490160	841.066181097459	
107	31.024000000000	707.274492782510	995.722459967875	546.443516024274	903.892589990680	1418.338065000106	361.449544981636	999.079161357891	1349.756060464420	527.491817810894	913.085843420006	1426.399385067882	698.090556285456	884.882521553195	1484.332892662869	518.829716466724	941.160146743647	931.031186390967	659.119627479731	919.753065025975	953.776899608892	386.761672148737	993.968537497016	733.035406843044	614.427377980098	919.630910779367	615.401523728511	663.848659746423	997.826142311897	572.743498566477	578.013623990339	1002.282228501081	478.465151504275	577.969152267981	1005.960280966799	769.842005722731	422.228753053643	967.096323461092	642.743276806028	344.541871831050	1064.973182783180	581.852713960704	415.906753474358	1078.894130651059	493.540662301425	407.016717847669	1015.882116501171	426.955913995066	390.902248654729	878.460906011350	376.890704281906	338.887931672519	878.032928551563	243.469766227461	382.978733141192	959.443145328680	390.937394624435	581.969279419056	876.654719266619	293.844697499877	640.477549477755	903.309886617674	198.134386764261	572.499690158475	750.149296653223	43.487310070504	537.566553695015	921.351889515173	96.119838112085	578.435466404288	831.354552507831	37.476964668802	614.987513243310	1039.850123647058	42.317415901128	611.873771037193	695.947681048312	162.332664897836	417.999781315158	753.749242852744	128.683626105148	332.796637969859	857.704219075638	141.560833912960	353.228124368604	940.899023099145	38.898711127881	312.269829123584	923.854349673632	1059.120006489599	254.502009713155	1087.377112357072	860.399213280474	259.264208564913	902.669762950634	1076.739894693531	823.579083766305	1071.261384336218	879.325545492327	838.560526559546	
108	31.043000000000	705.840492374722	994.778238089112	550.201672218043	901.094470450600	1416.214979310951	361.524232087847	998.476872450514	1348.131638382225	526.481263678746	915.297996746592	1425.639108018252	698.164535424764	884.638664483818	1483.107876671983	518.906680140834	940.867829764665	929.648422730799	659.666944129407	916.166526226571	953.077865597153	387.448945497854	993.146534825698	731.980839697712	614.139854466041	919.494917727252	614.141943292658	664.053785870968	997.032809490366	571.669998133856	577.502976394086	1001.415784265420	476.903848030671	577.388707614942	1004.001378623307	771.202896508683	421.435077264701	965.806245927075	643.873267953502	343.784274788423	1065.367738663184	584.384688820430	413.847538902582	1081.397350633295	497.359557964763	404.655997987882	1021.613297749263	429.213609346096	389.025788823641	887.001644883609	371.689649200549	338.778629747993	895.273179761546	238.508205922736	382.427273102568	957.464283876256	389.615261902606	581.602456693823	873.873314601364	293.273413030468	640.293134404448	899.205812887659	197.355460964777	572.181199320663	744.494401237571	43.591576813129	537.569928161349	915.726522813970	96.021642794730	578.347827444042	825.690062076099	37.517275636776	614.953556427115	1034.202639480848	42.022543345355	611.941034632212	719.585997728509	145.176445001541	419.853568796794	778.334487494049	116.693734986555	333.432004008542	881.106603942915	136.751806238324	352.571858398505	970.671151543869	40.927003045916	309.432232429707	910.872085296636	1055.161080257690	258.122147562772	1052.723098059396	839.913904364614	264.442850554112	915.170238801607	1076.197463727209	824.588545271791	1097.740983234388	891.676657828014	835.009979724273	
109	31.062000000000	704.572412854019	994.263685682086	553.658043391691	898.420659053393	1414.583709387421	361.528561827462	998.005015470996	1346.851916104776	525.286923924616	917.692341894798	1425.171942832178	698.043176540871	884.516858766392	1482.214479358498	518.896319511324	940.517419150595	928.524642746764	660.021619614585	912.756651960555	952.650675839675	387.953355009075	991.818335742978	731.003679939381	613.827636409128	918.585000062243	613.156099492091	664.306363548436	995.379194560470	570.686622600904	577.085153722202	999.521654486602	475.588245473304	576.938706292710	1001.552979105498	772.312391976616	420.436768296124	963.518985733789	644.842066022749	342.793152574675	1064.478271995597	586.467674170103	411.602005406685	1082.541325685700	501.061717121185	402.194113874318	1026.458076601513	431.462110261790	387.062883657238	895.778714711585	365.690144127681	337.970713280910	913.319175900412	233.287054356232	381.509893508606	954.704137290822	388.538542625391	581.353241478603	870.505065956448	292.783527436186	640.194985376551	894.764898400238	196.724541139530	571.957829756341	738.842175988539	43.683684831094	537.607689317336	910.074855921759	95.919132329515	578.263370384723	820.007935149777	37.546784667048	614.924389886304	1028.534276241703	41.762126127546	612.000829351194	745.036712813786	127.327535052113	420.652110390738	805.074868741880	103.989649230391	333.481434589813	906.133129556378	131.608697274304	351.746535027945	1002.310596150287	43.270663952820	307.358640618602	897.271055407092	1052.394786541308	261.291975040053	1016.948927948619	823.241335484026	269.380506873460	927.927548572272	1076.339658936977	825.185700302190	1123.719204917632	906.137214581976	830.486093561541	
110	31.081000000000	703.470986852323	994.233529480599	556.758633838279	895.859300203022	1413.502086754441	361.447339799961	997.658985565712	1345.976447969703	523.888584765996	920.261242895778	1425.051613313889	697.703220326992	884.507005117002	1481.697438370244	518.782386934602	940.111468592750	927.701099376380	660.208747845989	909.576466149649	952.523331515191	388.297342489528	989.990109133255	730.126305864379	613.534590868021	916.876888747883	612.471454311697	664.627096415638	992.853012706964	569.815188134802	576.794576456305	996.586257812374	474.545127059248	576.651006820234	998.676709283959	773.177128131489	419.381957070630	960.406162728164	645.674759660269	341.645300264339	1062.400048894198	588.092512114120	409.365546192605	1082.386745133632	504.599098962593	399.841884032676	1030.366172565207	433.726080777137	385.182848531234	904.739238487977	359.302016211466	336.491536788105	931.702979511814	228.274540977987	380.315428227169	951.145437632850	387.730461416880	581.242296899716	866.535480305915	292.388868766182	640.202039661870	889.972229353920	196.257079432866	571.839721424032	733.185293966152	43.758983890337	537.681033416537	904.394187308802	95.813716097449	578.182003582418	814.304347058807	37.564558198709	614.903026587707	1022.842170869682	41.541435647788	612.049367659079	771.615376763808	109.875102014352	420.298296518831	833.296481954023	91.421296573758	332.954611141181	932.103017349874	126.628424463308	350.861091765122	1034.811422256286	46.058932547346	306.362119542191	882.901970798205	1050.928371634949	263.979146977938	980.708100928396	810.634211058659	273.934756490806	940.931118825733	1077.254813143657	825.402157154303	1148.908721627960	922.704003848334	825.078201010536	
111	31.100000000000	702.528779914403	994.712181808145	559.459917246001	893.398603015986	1412.992958260072	361.267330119277	997.429903798818	1345.534391901915	522.273116995059	922.990254379031	1425.306631553541	697.125570608686	884.595491486775	1481.575733546842	518.547817698521	939.654825866477	927.193332123445	660.250954130722	906.677497598923	952.709925925999	388.500228942679	987.686223777796	729.361121077440	613.290945271629	914.380720884931	612.097773779958	665.023619791529	989.476927864612	569.069217719399	576.650229330655	992.636588164512	473.786808870282	576.540131170573	995.457578569459	773.807406943406	418.392266850613	956.657123364147	646.404212983052	340.407595537403	1059.271624880022	589.270592528895	407.293134141563	1081.019858438780	507.924499494284	397.769692491023	1033.298863558482	436.016473561207	383.519642000070	913.747455598929	352.921948841368	334.427466810016	949.902643051430	223.869903850662	378.956853924390	946.803898591358	387.200029937992	581.277707057800	861.974721897106	292.098684493293	640.324631556733	884.829084903345	195.960732548321	571.829766697572	727.515480911569	43.814230499772	537.786823242079	898.685010044154	95.709318552065	578.108561985588	808.577247560489	37.570587966097	614.892466335104	1017.124911795052	41.364216642528	612.084098108593	798.534126402929	93.740383956992	418.832821371154	862.199967112055	79.731611748566	331.936697695656	958.258546153599	122.251717483520	350.033032388535	1067.150996743837	49.407369926053	306.645941026230	867.708930158838	1050.837162519347	266.155587321009	944.682044392917	802.115014768661	277.986075704953	954.154476274369	1079.005575241751	825.267121325711	1173.039806977574	941.305662206367	818.889099353619	
112	31.119000000000	701.735972843476	995.687740489100	561.734240159777	891.031321928343	1413.042056536118	360.978088633264	997.306158895137	1345.520631315855	520.436943026586	925.857353415287	1425.935755024211	696.297416570167	884.766758552397	1481.839686951476	518.176635374556	939.157220494818	926.991187311492	660.164495964044	904.102181131998	953.204824753012	388.575007473652	984.948536306725	728.710626025238	613.108420123238	911.142087480233	612.027452932122	665.491569413474	985.306574916334	568.452877444910	576.654611157664	987.737370234979	473.310660989113	576.603470751847	992.002270119969	774.216875787024	417.548726697284	952.466169634378	647.061231025013	339.137261076222	1055.270052363940	590.031571614064	405.486301392693	1078.548200237073	510.988716461285	396.092022637601	1035.234739653707	438.320830415996	382.158018152486	922.587488295411	346.890309050864	331.923536066625	967.380962551139	220.358773623227	377.558522170728	941.727761221920	386.941683037541	581.454928122639	856.857893319498	291.917395228100	640.564174322250	879.354023698420	195.834367051958	571.923537219051	721.825055658085	43.848740219090	537.918679771339	892.950747732511	95.611913726402	578.052315794062	802.826793161274	37.565894655154	614.895757476925	1011.382788624844	41.231808471213	612.103940506351	824.966650283870	79.596966949131	416.437167795008	890.908159551554	69.487985096936	330.578863299243	983.810547280703	118.811779113910	349.370655110568	1098.343543369889	53.387741521123	308.259251657770	851.756055911440	1052.147733511600	267.804149765301	909.526650939407	797.486793517408	281.459103174990	967.557391353723	1081.620392416195	824.804023168493	1195.870852237755	961.796148325073	812.029989690363	
